<?xml version="1.0" encoding="iso-8859-1"?>
<!-- Generator: Adobe Illustrator 19.0.0, SVG Export Plug-In . SVG Version: 6.00 Build 0)  -->
<svg version="1.1" id="Layer_1" xmlns="http://www.w3.org/2000/svg" xmlns:xlink="http://www.w3.org/1999/xlink" x="0px" y="0px"
	 viewBox="0 0 299.081 299.081" style="enable-background:new 0 0 299.081 299.081;" xml:space="preserve">
<g>
	<g>
		<path d="M263.276,1.319L32.85,147.322c-15.995,10.135-11.907,34.472,6.472,38.865l61.389,14.68l-4.533,78.245
			c-0.43,7.418,8.296,11.654,13.869,6.849l37.968-32.72l32.081,38.193c11.458,13.639,33.544,8.101,37.284-9.251l58.602-272
			C277.575,2.866,269.483-2.631,263.276,1.319z M106.448,184.967L43.23,169.848c-3.954-0.944-4.826-6.156-1.388-8.335
			L225.444,45.178C224.097,46.761,109.577,181.29,106.448,184.967z M114.098,260.296l2.57-44.371l20.539,24.455L114.098,260.296z
			 M200.958,278.646c-0.805,3.739-5.537,4.909-7.997,1.984l-72.456-86.259L252.529,39.278L200.958,278.646z"/>
	</g>
</g>
<g>
</g>
<g>
</g>
<g>
</g>
<g>
</g>
<g>
</g>
<g>
</g>
<g>
</g>
<g>
</g>
<g>
</g>
<g>
</g>
<g>
</g>
<g>
</g>
<g>
</g>
<g>
</g>
<g>
</g>
</svg>
