<?xml version="1.0" encoding="iso-8859-1"?>
<!-- Generator: Adobe Illustrator 19.0.0, SVG Export Plug-In . SVG Version: 6.00 Build 0)  -->
<svg version="1.1" id="Layer_1" xmlns="http://www.w3.org/2000/svg" xmlns:xlink="http://www.w3.org/1999/xlink" x="0px" y="0px"
	 viewBox="0 0 512 512" style="enable-background:new 0 0 512 512;" xml:space="preserve">
<g>
	<g>
		<path d="M370.592,372.064c0-52.56-36.976-96.688-86.704-108.96c24.576-10.592,41.84-34.672,41.84-62.672
			c0-37.76-31.28-68.48-69.712-68.48s-69.712,30.72-69.712,68.48c0,28.016,17.248,52.08,41.84,62.672
			c-49.728,12.272-86.704,56.4-86.704,108.96v8h229.184v-8H370.592z M202.288,200.416c0-28.944,24.096-52.48,53.712-52.48
			c29.616,0,53.712,23.552,53.712,52.48c0,28.928-24.096,52.48-53.712,52.48C226.384,252.896,202.288,229.36,202.288,200.416z
			 M157.728,364.064C161.904,314.592,204.384,275.6,256,275.6c51.616,0,94.096,39.008,98.272,88.464H157.728z"/>
	</g>
</g>
<g>
	<g>
		<path d="M437.28,0H74.72C56.832,0,42.288,14.544,42.288,32.432v447.12C42.288,497.456,56.832,512,74.72,512h362.56
			c17.888,0,32.432-14.544,32.432-32.432V32.432C469.712,14.544,455.168,0,437.28,0z M453.712,479.552
			c0,9.056-7.376,16.432-16.432,16.432H74.72c-9.056,0-16.432-7.376-16.432-16.432V32.432C58.288,23.376,65.664,16,74.72,16h362.56
			c9.056,0,16.432,7.376,16.432,16.432V479.552z"/>
	</g>
</g>
<g>
</g>
<g>
</g>
<g>
</g>
<g>
</g>
<g>
</g>
<g>
</g>
<g>
</g>
<g>
</g>
<g>
</g>
<g>
</g>
<g>
</g>
<g>
</g>
<g>
</g>
<g>
</g>
<g>
</g>
</svg>
