<?xml version="1.0" encoding="iso-8859-1"?>
<!-- Generator: Adobe Illustrator 16.0.0, SVG Export Plug-In . SVG Version: 6.00 Build 0)  -->
<!DOCTYPE svg PUBLIC "-//W3C//DTD SVG 1.1//EN" "http://www.w3.org/Graphics/SVG/1.1/DTD/svg11.dtd">
<svg version="1.1" id="Capa_1" xmlns="http://www.w3.org/2000/svg" xmlns:xlink="http://www.w3.org/1999/xlink" x="0px" y="0px"
	 width="612px" height="612px" viewBox="0 0 612 612" style="enable-background:new 0 0 612 612;" xml:space="preserve">
<g>
	<g>
		<g id="Stalking_You">
			<g>
				<path d="M520.2,229.5h-5.336c13.043-22.529,20.636-48.597,20.636-76.5c0-84.494-68.506-153-153-153s-153,68.506-153,153
					c-84.494,0-153,68.506-153,153c0,27.903,7.593,53.971,20.636,76.5H91.8C37.294,406.903,0,459.191,0,514.96v58.79
					C0,587.156,21.19,612,37.064,612h388.467C441.405,612,459,587.156,459,573.75v-58.79c0-19.45-4.781-38.403-13.005-55.96h132.536
					C594.405,459,612,434.156,612,420.75v-58.79C612,306.191,574.706,253.903,520.2,229.5z M382.5,76.5
					c42.189,0,76.5,34.31,76.5,76.5s-34.311,76.5-76.5,76.5c-8.07,0-15.701-1.606-23.026-3.92
					c-12.47-20.12-29.434-37.083-49.553-49.553C307.606,168.702,306,161.071,306,153C306,110.81,340.311,76.5,382.5,76.5z
					 M229.5,229.5c42.247,0,76.5,34.253,76.5,76.5s-34.253,76.5-76.5,76.5c-37.81,0-69.022-27.502-75.2-63.553
					c-0.803-4.188-1.3-8.511-1.3-12.947C153,263.753,187.253,229.5,229.5,229.5z M382.5,535.5h-306v-20.54
					c0-20.751,13.636-42.343,34.368-55.96h237.265c20.731,13.617,34.367,35.209,34.367,55.96V535.5z M535.5,382.5H361.864
					c13.043-22.529,20.636-48.597,20.636-76.5h118.633c20.731,13.617,34.367,35.209,34.367,55.96V382.5z"/>
			</g>
		</g>
	</g>
</g>
<g>
</g>
<g>
</g>
<g>
</g>
<g>
</g>
<g>
</g>
<g>
</g>
<g>
</g>
<g>
</g>
<g>
</g>
<g>
</g>
<g>
</g>
<g>
</g>
<g>
</g>
<g>
</g>
<g>
</g>
</svg>
