<?xml version="1.0" ?><!DOCTYPE svg  PUBLIC '-//W3C//DTD SVG 1.1//EN'  'http://www.w3.org/Graphics/SVG/1.1/DTD/svg11.dtd'><svg enable-background="new 0 0 501.872 326.793" height="326.793" id="Layer_1" overflow="visible" version="1.1" viewBox="0 0 501.872 326.793" width="501.872" xml:space="preserve" xmlns="http://www.w3.org/2000/svg" xmlns:xlink="http://www.w3.org/1999/xlink"><g><g><path d="M231.699,191.619c0.006,0,0.006,0,0.006,0c3.071,0,5.663-1.21,7.672-3.503    c3.146-3.587,4.537-9.468,3.715-15.724c-1.469-11.174-9.443-20.461-17.779-20.708l-0.335-0.005c-2.951,0-5.579,1.21-7.585,3.501    c-3.105,3.541-4.418,9.148-3.596,15.385c1.457,11.158,9.604,20.805,17.77,21.053H231.699z M240.796,225.29    c-0.816-0.556-1.669-1.136-2.547-1.742c-2.573-0.786-5.298-1.2-8.091-1.231l-0.346-0.002c-12.838,0-24.104,7.777-24.104,16.646    c0,9.646,9.646,17.201,21.961,17.201c16.244,0,24.479-5.601,24.479-16.642c0-1.047-0.128-2.129-0.385-3.207    C250.67,232.018,246.743,229.341,240.796,225.29z M423.295,143.786c0,0,9.529-128.362-108.072-142.995    C214.42-9.505,183.752,84.17,183.752,84.17s-30.354-29.196-71.542-5.351c-36.853,22.762-30.346,64.424-30.346,64.424    S0,159.148,0,242.609c1.836,83.346,88.909,84.185,88.909,84.185h320.294c0,0,81.035,0.082,92.416-79.203    C507.042,160.877,423.295,143.786,423.295,143.786z M243.164,266.027c-4.795,1.388-9.979,2.094-15.419,2.094    c-6.054,0-11.883-0.7-17.31-2.071c-10.509-2.651-18.287-7.68-21.907-14.157c-1.561-2.801-2.357-5.785-2.357-8.884    c0-3.188,0.764-6.416,2.266-9.606c5.763-12.278,20.94-20.527,37.753-20.527c0.17,0,0.326,0,0.485-0.003    c-1.368-2.402-2.034-4.888-2.034-7.513c0-1.305,0.173-2.635,0.518-3.982c-17.637-0.407-30.833-13.318-30.833-30.352    c0-12.022,9.609-23.733,23.354-28.475c4.115-1.416,8.307-2.143,12.434-2.143h37.712c1.287,0,2.422,0.832,2.819,2.054    c0.401,1.224-0.036,2.563-1.084,3.313l-8.433,6.108c-0.506,0.365-1.115,0.561-1.742,0.561h-3.021    c3.898,4.673,6.188,11.328,6.188,18.82c0,8.26-4.184,16.079-11.783,22.029c-5.874,4.576-6.107,5.827-6.107,8.449    c0.071,1.438,4.172,6.119,8.679,9.313c10.52,7.439,14.435,14.735,14.435,26.926C267.775,250.686,258.113,261.688,243.164,266.027z     M328.348,201.336c0,1.639-1.332,2.965-2.965,2.965h-21.438v21.439c0,1.639-1.326,2.965-2.963,2.965h-6.104    c-1.642,0-2.971-1.326-2.971-2.965v-21.439h-21.438c-1.633,0-2.965-1.326-2.965-2.965v-6.105c0-1.637,1.332-2.969,2.965-2.969    h21.438v-21.434c0-1.637,1.329-2.967,2.971-2.967h6.104c1.637,0,2.963,1.33,2.963,2.967v21.434h21.438    c1.633,0,2.965,1.332,2.965,2.969V201.336z" fill="#39B29D"/></g></g></svg>