<?xml version="1.0" standalone="no"?>
<!DOCTYPE svg PUBLIC "-//W3C//DTD SVG 20010904//EN"
 "http://www.w3.org/TR/2001/REC-SVG-20010904/DTD/svg10.dtd">
<svg version="1.0" xmlns="http://www.w3.org/2000/svg"
 width="80.000000pt" height="80.000000pt" viewBox="0 0 1280.000000 1280.000000"
 preserveAspectRatio="xMidYMid meet">
<g transform="translate(0.000000,1280.000000) scale(0.100000,-0.100000)"
fill="white" stroke="none">
<path d="M5610 9689 c-89 -16 -216 -64 -303 -115 -75 -44 -194 -160 -1430
-1394 -741 -740 -1368 -1370 -1393 -1400 -54 -67 -128 -211 -151 -300 -13 -49
-18 -102 -17 -210 0 -128 4 -155 28 -235 31 -104 87 -212 150 -293 25 -31 651
-663 1393 -1403 915 -914 1368 -1360 1412 -1389 271 -181 634 -197 896 -39
133 79 261 229 318 372 99 246 62 563 -93 794 -18 26 -328 344 -689 705 l-656
658 2355 2 2355 3 74 23 c254 79 450 256 540 490 39 102 51 174 51 302 0 133
-24 232 -84 355 -82 165 -198 281 -361 360 -181 88 91 79 -2580 82 l-2370 3
652 653 c675 676 703 707 768 853 71 159 90 385 46 548 -73 273 -274 480 -541
556 -87 25 -282 35 -370 19z"/>
</g>
</svg>
