<?xml version="1.0" encoding="iso-8859-1"?>
<!-- Generator: Adobe Illustrator 16.0.0, SVG Export Plug-In . SVG Version: 6.00 Build 0)  -->
<!DOCTYPE svg PUBLIC "-//W3C//DTD SVG 1.1//EN" "http://www.w3.org/Graphics/SVG/1.1/DTD/svg11.dtd">
<svg version="1.1" id="Capa_1" xmlns="http://www.w3.org/2000/svg" xmlns:xlink="http://www.w3.org/1999/xlink" x="0px" y="0px"
	 width="442.979px" height="442.979px" viewBox="0 0 442.979 442.979" style="enable-background:new 0 0 442.979 442.979;"
	 xml:space="preserve">
<g>
	<g>
		<path d="M327.93,139.923H33.462C14.982,139.923,0,154.904,0,173.384v166.355c0,18.481,14.981,33.462,33.462,33.462h294.47
			c18.479,0,33.461-14.98,33.461-33.462V173.384C361.393,154.904,346.41,139.923,327.93,139.923z M53.441,210.654
			c0-11.284,9.147-20.432,20.432-20.432h19.553c11.284,0,20.432,9.147,20.432,20.432v19.553c0,11.284-9.147,20.432-20.432,20.432
			H73.873c-11.284,0-20.432-9.147-20.432-20.432V210.654z M154.241,319.293c0,3.159-2.561,5.719-5.719,5.719H60.341
			c-3.158,0-5.72-2.561-5.72-5.719v-17.398c0-3.158,2.562-5.719,5.72-5.719h88.182c3.158,0,5.719,2.561,5.719,5.719L154.241,319.293
			L154.241,319.293z M306.77,319.293c0,3.159-2.562,5.719-5.721,5.719h-88.18c-3.158,0-5.72-2.561-5.72-5.719v-17.398
			c0-3.158,2.562-5.719,5.72-5.719h88.18c3.158,0,5.721,2.561,5.721,5.719V319.293z"/>
		<path d="M409.516,69.777H115.048c-18.48,0-33.462,14.981-33.462,33.462v9.04h246.346c33.691,0,61.104,27.412,61.104,61.105v25.874
			h53.943v-96.019C442.979,84.758,427.996,69.777,409.516,69.777z"/>
		<path d="M389.035,303.057h20.48c18.48,0,33.463-14.981,33.463-33.463v-37.16h-53.943V303.057z"/>
	</g>
</g>
<g>
</g>
<g>
</g>
<g>
</g>
<g>
</g>
<g>
</g>
<g>
</g>
<g>
</g>
<g>
</g>
<g>
</g>
<g>
</g>
<g>
</g>
<g>
</g>
<g>
</g>
<g>
</g>
<g>
</g>
</svg>
