<?xml version="1.0" encoding="iso-8859-1"?>
<!-- Generator: Adobe Illustrator 19.0.0, SVG Export Plug-In . SVG Version: 6.00 Build 0)  -->
<svg version="1.1" id="Layer_1" xmlns="http://www.w3.org/2000/svg" xmlns:xlink="http://www.w3.org/1999/xlink" x="0px" y="0px"
	 viewBox="0 0 512 512" style="enable-background:new 0 0 512 512;" xml:space="preserve">
<g>
	<g>
		<path d="M437.024,74.976C388.676,26.627,324.386,0,256,0S123.324,26.627,74.976,74.976S0,187.614,0,256
			s26.627,132.676,74.976,181.024S187.614,512,256,512s132.676-26.627,181.024-74.976C485.373,388.676,512,324.386,512,256
			S485.373,123.324,437.024,74.976z M425.828,425.828C380.47,471.185,320.157,496.165,256,496.165s-124.47-24.98-169.828-70.337
			C40.814,380.471,15.835,320.157,15.835,256s24.98-124.47,70.337-169.828S191.843,15.835,256,15.835s124.47,24.98,169.828,70.337
			c45.358,45.357,70.337,105.67,70.337,169.828S471.185,380.47,425.828,425.828z"/>
	</g>
</g>
<g>
	<g>
		<polygon points="263.918,248.082 263.918,213.773 248.082,213.773 248.082,248.082 213.773,248.082 213.773,263.918 
			248.082,263.918 248.082,298.227 263.918,298.227 263.918,263.918 298.227,263.918 298.227,248.082 		"/>
	</g>
</g>
<g>
</g>
<g>
</g>
<g>
</g>
<g>
</g>
<g>
</g>
<g>
</g>
<g>
</g>
<g>
</g>
<g>
</g>
<g>
</g>
<g>
</g>
<g>
</g>
<g>
</g>
<g>
</g>
<g>
</g>
</svg>
