<?xml version="1.0" encoding="iso-8859-1"?>
<!-- Generator: Adobe Illustrator 19.1.0, SVG Export Plug-In . SVG Version: 6.00 Build 0)  -->
<svg version="1.1" id="Capa_1" xmlns="http://www.w3.org/2000/svg" xmlns:xlink="http://www.w3.org/1999/xlink" x="0px" y="0px"
	 viewBox="0 0 460.717 460.717" style="enable-background:new 0 0 460.717 460.717;" xml:space="preserve">
<g>
	<g>
		<path style="fill:#231F20;" d="M376.805,460.717H83.913c-8.552,0-16.034-7.483-16.034-16.034V249.065
			c0-8.552,7.483-16.034,16.034-16.034h292.892c8.552,0,16.034,7.483,16.034,16.034v195.618
			C392.839,453.235,385.356,460.717,376.805,460.717z M99.947,428.649h260.824V265.1H99.947V428.649z"/>
		<path style="fill:#231F20;" d="M321.219,265.1H139.498c-8.552,0-16.034-7.483-16.034-16.034v-142.17
			C123.464,48.103,171.566,0,230.359,0s106.895,48.103,106.895,106.895c0,8.552-7.483,16.034-16.034,16.034
			c-8.552,0-16.034-7.483-16.034-16.034c0-40.62-33.137-74.826-74.826-74.826c-40.62,0-74.826,33.137-74.826,74.826v125.067H320.15
			c8.552,0,16.034,7.483,16.034,16.034C337.254,257.617,329.771,265.1,321.219,265.1z"/>
		<path style="fill:#231F20;" d="M230.359,389.098c-8.552,0-16.034-7.483-16.034-16.034v-42.758c0-8.552,7.483-16.034,16.034-16.034
			c8.552,0,16.034,7.483,16.034,16.034v42.758C246.393,381.615,238.91,389.098,230.359,389.098z"/>
	</g>
</g>
<g>
</g>
<g>
</g>
<g>
</g>
<g>
</g>
<g>
</g>
<g>
</g>
<g>
</g>
<g>
</g>
<g>
</g>
<g>
</g>
<g>
</g>
<g>
</g>
<g>
</g>
<g>
</g>
<g>
</g>
</svg>
