<?xml version="1.0" ?><!DOCTYPE svg  PUBLIC '-//W3C//DTD SVG 1.1//EN'  'http://www.w3.org/Graphics/SVG/1.1/DTD/svg11.dtd'><svg id="Layer_1" style="enable-background:new 0 0 30.5 30.2;" version="1.1" viewBox="0 0 30.5 30.2" xml:space="preserve" xmlns="http://www.w3.org/2000/svg" xmlns:xlink="http://www.w3.org/1999/xlink"><style type="text/css">
	.st0{fill:none;stroke:#414042;stroke-width:1.25;stroke-linecap:round;stroke-linejoin:round;stroke-miterlimit:10;}
	.st1{fill:none;stroke:#414042;stroke-width:1.1713;stroke-linecap:round;stroke-linejoin:round;stroke-miterlimit:10;}
</style><path class="st0" d="M21.4,18.8c0.6-0.3,0.9-0.4,1.7-0.4c2.4,0,4.3,1.9,4.3,4.3s-1.9,4.3-4.3,4.3s-4.3-1.9-4.3-4.3  c0-0.4,0-2.1,0.3-2.4l-8.4-4.4c-0.6,1.5-2.2,2.8-4,2.8c-2.4,0-4.3-1.9-4.3-4.3s1.9-4.3,4.3-4.3c0.9,0,1.9,0.5,2.3,0.7  c0.4,0.2,1.5,1.4,1.5,1.4l8.3-6c0-2.4,1.9-4.3,4.3-4.3s4.3,1.9,4.3,4.3s-1.9,4.3-4.3,4.3c-1.2,0-2.3-0.5-3-1.3"/></svg>